<svg xmlns="http://www.w3.org/2000/svg" viewBox="0 0 128 128" width="128" height="128">
  <rect x="0" y="0" width="128" height="128" rx="28" fill="#1a56c4"></rect>
  <rect x="18" y="18" width="92" height="92" rx="12" fill="#ffffff"></rect>
  <circle cx="30" cy="34" r="3.5" fill="#c8442a"></circle>
  <circle cx="42" cy="34" r="3.5" fill="#c2c9d2"></circle>
  <rect x="54" y="29.5" width="48" height="9" rx="4.5" fill="#f1f4f8"></rect>
  <line x1="26" y1="47" x2="102" y2="47" stroke="#e4e9f0" stroke-width="2.5"></line>
  <g transform="translate(30,44.5) scale(0.34)" fill="#1a56c4"><path fill-rule="evenodd" d="M102.3,169.2L105.9,169.1L109.5,168.8L113.1,168.3L116.6,167.7L120.2,166.8L123.6,165.8L127.1,164.6L130.4,163.2L133.7,161.7L136.9,159.9L139.9,158.0L142.9,156.0L145.8,153.8L148.6,151.4L151.2,148.9L153.7,146.3L156.0,143.5L158.2,140.7L160.3,137.7L162.2,134.6L163.9,131.4L165.5,128.1L166.9,124.8L168.1,121.4L169.1,117.9L169.9,114.4L170.6,110.8L171.1,107.2L171.4,103.6L171.5,100.0L171.4,96.4L171.1,92.8L170.6,89.2L169.9,85.6L169.1,82.1L168.1,78.6L166.9,75.2L165.5,71.9L163.9,68.6L162.2,65.4L160.3,62.3L158.2,59.3L156.0,56.5L153.7,53.7L151.2,51.1L148.6,48.6L145.8,46.2L142.9,44.0L139.9,42.0L136.9,40.1L133.7,38.3L130.4,36.8L127.1,35.4L123.6,34.2L120.2,33.2L116.6,32.3L113.1,31.7L109.5,31.2L105.9,30.9L102.3,30.8L102.3,30.8L104.1,30.8L105.9,31.0L107.7,31.2L109.4,31.6L111.2,32.0L112.9,32.5L114.7,33.1L116.3,33.8L118.0,34.6L119.6,35.4L121.1,36.4L122.6,37.4L124.0,38.5L125.4,39.7L126.7,40.9L128.0,42.2L129.1,43.6L130.2,45.1L131.3,46.6L132.2,48.1L133.1,49.7L133.9,51.3L134.6,53.0L135.2,54.7L135.7,56.4L136.1,58.2L136.4,60.0L136.7,61.8L136.8,63.6L136.9,65.4L136.8,67.2L136.7,69.0L136.4,70.8L136.1,72.6L135.7,74.4L135.2,76.1L134.6,77.8L133.9,79.5L133.1,81.1L132.2,82.7L131.3,84.2L130.2,85.7L129.1,87.2L128.0,88.6L126.7,89.9L125.4,91.1L124.0,92.3L122.6,93.4L121.1,94.4L119.6,95.4L118.0,96.2L116.3,97.0L114.7,97.7L112.9,98.3L111.2,98.8L109.4,99.2L107.7,99.6L105.9,99.8L104.1,100.0L102.3,100.0L102.3,100.0L100.4,100.0L98.6,100.2L96.8,100.4L95.1,100.8L93.3,101.2L91.6,101.7L89.9,102.3L88.2,103.0L86.5,103.8L85.0,104.6L83.4,105.6L81.9,106.6L80.5,107.7L79.1,108.9L77.8,110.1L76.5,111.4L75.4,112.8L74.3,114.3L73.2,115.8L72.3,117.3L71.4,118.9L70.6,120.5L70.0,122.2L69.3,123.9L68.8,125.6L68.4,127.4L68.1,129.2L67.8,131.0L67.7,132.8L67.7,134.6L67.7,136.4L67.8,138.2L68.1,140.0L68.4,141.8L68.8,143.6L69.3,145.3L70.0,147.0L70.6,148.7L71.4,150.3L72.3,151.9L73.2,153.4L74.3,154.9L75.4,156.4L76.5,157.8L77.8,159.1L79.1,160.3L80.5,161.5L81.9,162.6L83.4,163.6L85.0,164.6L86.5,165.4L88.2,166.2L89.9,166.9L91.6,167.5L93.3,168.0L95.1,168.4L96.8,168.8L98.6,169.0L100.4,169.2L102.3,169.2ZM115.0,140.0L114.8,142.6L114.1,145.1L113.0,147.5L111.5,149.6L109.6,151.5L107.5,153.0L105.1,154.1L102.6,154.8L100.0,155.0L97.4,154.8L94.9,154.1L92.5,153.0L90.4,151.5L88.5,149.6L87.0,147.5L85.9,145.1L85.2,142.6L85.0,140.0L85.2,137.4L85.9,134.9L87.0,132.5L88.5,130.4L90.4,128.5L92.5,127.0L94.9,125.9L97.4,125.2L100.0,125.0L102.6,125.2L105.1,125.9L107.5,127.0L109.6,128.5L111.5,130.4L113.0,132.5L114.1,134.9L114.8,137.4Z"></path><path fill-rule="evenodd" d="M97.7,30.8L94.1,30.9L90.5,31.2L86.9,31.7L83.4,32.3L79.8,33.2L76.4,34.2L72.9,35.4L69.6,36.8L66.3,38.3L63.1,40.1L60.1,42.0L57.1,44.0L54.2,46.2L51.4,48.6L48.8,51.1L46.3,53.7L44.0,56.5L41.8,59.3L39.7,62.3L37.8,65.4L36.1,68.6L34.5,71.9L33.1,75.2L31.9,78.6L30.9,82.1L30.1,85.6L29.4,89.2L28.9,92.8L28.6,96.4L28.5,100.0L28.6,103.6L28.9,107.2L29.4,110.8L30.1,114.4L30.9,117.9L31.9,121.4L33.1,124.8L34.5,128.1L36.1,131.4L37.8,134.6L39.7,137.7L41.8,140.7L44.0,143.5L46.3,146.3L48.8,148.9L51.4,151.4L54.2,153.8L57.1,156.0L60.1,158.0L63.1,159.9L66.3,161.7L69.6,163.2L72.9,164.6L76.4,165.8L79.8,166.8L83.4,167.7L86.9,168.3L90.5,168.8L94.1,169.1L97.7,169.2L97.7,169.2L95.9,169.2L94.1,169.0L92.3,168.8L90.6,168.4L88.8,168.0L87.1,167.5L85.3,166.9L83.7,166.2L82.0,165.4L80.4,164.6L78.9,163.6L77.4,162.6L76.0,161.5L74.6,160.3L73.3,159.1L72.0,157.8L70.9,156.4L69.8,154.9L68.7,153.4L67.8,151.9L66.9,150.3L66.1,148.7L65.4,147.0L64.8,145.3L64.3,143.6L63.9,141.8L63.6,140.0L63.3,138.2L63.2,136.4L63.1,134.6L63.2,132.8L63.3,131.0L63.6,129.2L63.9,127.4L64.3,125.6L64.8,123.9L65.4,122.2L66.1,120.5L66.9,118.9L67.8,117.3L68.7,115.8L69.8,114.3L70.9,112.8L72.0,111.4L73.3,110.1L74.6,108.9L76.0,107.7L77.4,106.6L78.9,105.6L80.4,104.6L82.0,103.8L83.7,103.0L85.3,102.3L87.1,101.7L88.8,101.2L90.6,100.8L92.3,100.4L94.1,100.2L95.9,100.0L97.7,100.0L97.7,100.0L99.6,100.0L101.4,99.8L103.2,99.6L104.9,99.2L106.7,98.8L108.4,98.3L110.1,97.7L111.8,97.0L113.5,96.2L115.0,95.4L116.6,94.4L118.1,93.4L119.5,92.3L120.9,91.1L122.2,89.9L123.5,88.6L124.6,87.2L125.7,85.7L126.8,84.2L127.7,82.7L128.6,81.1L129.4,79.5L130.0,77.8L130.7,76.1L131.2,74.4L131.6,72.6L131.9,70.8L132.2,69.0L132.3,67.2L132.3,65.4L132.3,63.6L132.2,61.8L131.9,60.0L131.6,58.2L131.2,56.4L130.7,54.7L130.0,53.0L129.4,51.3L128.6,49.7L127.7,48.1L126.8,46.6L125.7,45.1L124.6,43.6L123.5,42.2L122.2,40.9L120.9,39.7L119.5,38.5L118.1,37.4L116.6,36.4L115.0,35.4L113.5,34.6L111.8,33.8L110.1,33.1L108.4,32.5L106.7,32.0L104.9,31.6L103.2,31.2L101.4,31.0L99.6,30.8L97.7,30.8ZM115.0,60.0L114.8,62.6L114.1,65.1L113.0,67.5L111.5,69.6L109.6,71.5L107.5,73.0L105.1,74.1L102.6,74.8L100.0,75.0L97.4,74.8L94.9,74.1L92.5,73.0L90.4,71.5L88.5,69.6L87.0,67.5L85.9,65.1L85.2,62.6L85.0,60.0L85.2,57.4L85.9,54.9L87.0,52.5L88.5,50.4L90.4,48.5L92.5,47.0L94.9,45.9L97.4,45.2L100.0,45.0L102.6,45.2L105.1,45.9L107.5,47.0L109.6,48.5L111.5,50.4L113.0,52.5L114.1,54.9L114.8,57.4Z"></path></g>
</svg>